<svg xmlns="http://www.w3.org/2000/svg" width="27" height="32" viewBox="0 0 27 32">
    <path fill="#4A4A4A" fill-rule="evenodd" d="M19.867 0L3.994.345V4.74H0v26.436h20.975l.078-3.188h5.81V8.028L19.868 0zM1.087 29.99V5.997h2.786v21.991h15.994v2.002H1.087zm23.777-4.001H5.873V1.999h11.994c0 .764.401 3.028 1.203 6.794 3.224.802 5.156 1.203 5.794 1.203v15.993zM20.46 6.903c-.396-2.596-.593-4.22-.593-4.873l4.997 5.967-4.404-1.094zM8.847 19.108v1.782H21.89v-1.782H8.847zm0-4.361v1.782H21.89v-1.782H8.847z" opacity=".65"/>
</svg>
