<?xml version="1.0" encoding="utf-8"?>
<!-- Generator: Adobe Illustrator 24.1.1, SVG Export Plug-In . SVG Version: 6.00 Build 0)  -->
<svg version="1.1" id="Layer_1" xmlns="http://www.w3.org/2000/svg" xmlns:xlink="http://www.w3.org/1999/xlink" x="0px" y="0px"
	 viewBox="0 0 107 51" style="enable-background:new 0 0 107 51;" xml:space="preserve">
<style type="text/css">
	.st0{fill-rule:evenodd;clip-rule:evenodd;fill:url(#SVGID_1_);}
	.st1{fill:url(#SVGID_2_);stroke:url(#SVGID_3_);stroke-miterlimit:10;}
	.st2{fill:url(#SVGID_4_);stroke:url(#SVGID_5_);stroke-miterlimit:10;}
	.st3{fill:url(#SVGID_6_);stroke:url(#SVGID_7_);stroke-miterlimit:10;}
	.st4{fill:url(#SVGID_8_);stroke:url(#SVGID_9_);stroke-miterlimit:10;}
</style>
<g>
	
		<linearGradient id="SVGID_1_" gradientUnits="userSpaceOnUse" x1="-88.6499" y1="300.6151" x2="-88.6499" y2="299.9158" gradientTransform="matrix(105.8724 0 0 -50.044 9439.3467 15059.9561)">
		<stop  offset="0" style="stop-color:#864BFF"/>
		<stop  offset="1" style="stop-color:#5082FF"/>
	</linearGradient>
	<path class="st0" d="M16.4,34.6c-0.8-1.2-2-1.8-3.7-1.8c-0.6,0-1.1,0.1-1.7,0.4s-0.9,0.7-1,1.4c-0.1,0.5,0.1,0.9,0.7,1.2
		c0.5,0.3,1.2,0.5,2,0.7s1.7,0.4,2.6,0.6c0.9,0.2,1.8,0.6,2.6,1.1c0.8,0.5,1.4,1.2,1.8,2c0.4,0.8,0.6,1.9,0.4,3.3
		c-0.2,1.4-0.6,2.6-1.4,3.5C18,47.7,17,48.5,16,49c-1.1,0.6-2.2,1-3.4,1.2c-1.2,0.2-2.4,0.3-3.6,0.3c-1.5,0-3-0.2-4.5-0.7
		c-1.5-0.4-2.7-1.2-3.6-2.3L5.6,43c0.5,0.8,1.2,1.4,1.9,1.8c0.7,0.4,1.6,0.6,2.6,0.6c0.8,0,1.5-0.1,2.2-0.3c0.7-0.2,1-0.6,1.1-1.2
		c0.1-0.6-0.1-1-0.7-1.3c-0.5-0.3-1.2-0.5-2-0.7L8,41.2c-0.9-0.2-1.8-0.6-2.6-1c-0.8-0.4-1.4-1.1-1.9-1.9C3,37.5,2.9,36.3,3.1,35
		c0.2-1.3,0.6-2.4,1.3-3.3c0.6-0.9,1.5-1.7,2.4-2.3c0.9-0.6,2-1,3.1-1.3c1.1-0.3,2.3-0.4,3.4-0.4c1.4,0,2.9,0.2,4.3,0.6
		c1.4,0.4,2.6,1.2,3.4,2.3L16.4,34.6L16.4,34.6z M32.5,16l-2.1,15.1h0.1c0.2-0.4,0.5-0.8,0.9-1.3c0.4-0.4,0.9-0.8,1.4-1.1
		s1.2-0.6,1.9-0.8c0.7-0.2,1.5-0.3,2.3-0.3c1.7,0,3.1,0.3,4,0.8c1,0.5,1.7,1.3,2.2,2.2s0.7,2,0.7,3.3s-0.1,2.6-0.3,4.1L42,50h-6.8
		l1.5-10.7c0.1-0.6,0.2-1.3,0.2-2c0.1-0.6,0-1.3-0.1-1.9c-0.1-0.5-0.4-1-0.9-1.4c-0.4-0.4-1.1-0.5-1.9-0.5s-1.6,0.2-2.2,0.5
		c-0.6,0.3-1.1,0.7-1.4,1.3c-0.4,0.5-0.6,1.1-0.8,1.8c-0.2,0.7-0.3,1.3-0.4,2.1L27.7,50h-6.8l4.8-34L32.5,16L32.5,16z M59.1,47.3
		L59.1,47.3c-1,1.2-2.1,2-3.4,2.5c-1.3,0.5-2.7,0.8-4,0.8c-1,0-2-0.1-2.9-0.4c-0.9-0.3-1.7-0.7-2.3-1.3c-0.6-0.6-1.1-1.3-1.4-2.1
		c-0.3-0.8-0.4-1.8-0.2-2.9c0.3-1.9,1-3.4,2.1-4.4c1.2-1,2.5-1.8,4.1-2.3c1.6-0.5,3.3-0.8,5-0.9c1.6-0.1,3.1-0.1,4.7-0.1
		c0.1-1.2-0.1-2.2-0.9-2.9c-0.8-0.7-1.7-1.1-2.9-1.1c-1.1,0-2.2,0.2-3.1,0.7c-1,0.5-1.9,1.1-2.7,1.9L48,31.1c1.4-1.2,3-2.1,4.7-2.6
		c1.7-0.6,3.5-0.9,5.3-0.9c2,0,3.6,0.2,4.8,0.7c1.2,0.5,2.1,1.2,2.8,2.2s1,2.1,1.1,3.5c0.1,1.4,0,3-0.2,4.8L65,50h-6.2L59.1,47.3
		L59.1,47.3z M58.4,40.4c-0.5,0-1.1,0-1.9,0.1c-0.8,0-1.5,0.2-2.3,0.4c-0.7,0.2-1.4,0.5-1.9,0.9s-0.9,1-1,1.8
		c-0.1,0.4,0,0.8,0.1,1.1c0.1,0.3,0.4,0.5,0.6,0.7c0.3,0.2,0.6,0.4,1,0.4s0.7,0.1,1.1,0.1c0.7,0,1.3-0.1,2-0.3
		c0.6-0.2,1.2-0.4,1.8-0.8c0.5-0.3,1-0.8,1.3-1.3c0.4-0.5,0.6-1.1,0.7-1.8l0.2-1.4C60.1,40.4,58.4,40.4,58.4,40.4z M70.6,28.1h6.8
		l-0.5,3.5h0.1c0.9-1.3,1.9-2.4,3-3c1.1-0.7,2.4-1,3.9-1c0.4,0,0.8,0,1.2,0s0.8,0.1,1.1,0.2L85.1,34c-0.5-0.2-0.9-0.3-1.4-0.3
		c-0.5-0.1-1-0.1-1.4-0.1c-1.3,0-2.3,0.2-3.1,0.5s-1.5,0.9-1.9,1.5c-0.5,0.6-0.8,1.4-1.1,2.3s-0.5,1.9-0.6,3L74.2,50h-6.8L70.6,28.1
		L70.6,28.1z M104.5,46.2c-1.3,1.4-2.8,2.5-4.5,3.2c-1.8,0.8-3.5,1.1-5.3,1.1c-1.7,0-3.2-0.3-4.6-0.8s-2.6-1.3-3.5-2.3
		c-0.9-1-1.6-2.2-2.1-3.6s-0.5-3-0.3-4.7c0.2-1.7,0.8-3.3,1.6-4.7c0.8-1.4,1.8-2.6,3.1-3.6c1.2-1,2.7-1.8,4.2-2.3
		c1.6-0.5,3.2-0.8,4.9-0.8c1.6,0,2.9,0.3,4.1,0.8s2.2,1.3,2.9,2.3c0.8,1,1.3,2.2,1.6,3.6s0.3,3,0.1,4.7l-0.3,2.1H90.6
		c0.1,1.3,0.5,2.3,1.3,3.1c0.8,0.8,1.9,1.1,3.2,1.1c1.1,0,2.1-0.2,2.9-0.7c0.9-0.5,1.6-1.2,2.3-1.9L104.5,46.2z M100.1,36.6
		c0.2-1.1-0.1-2.1-0.7-2.9c-0.7-0.8-1.6-1.2-2.8-1.2c-0.8,0-1.4,0.1-2,0.4s-1.1,0.5-1.6,0.9c-0.4,0.4-0.8,0.8-1.1,1.3
		c-0.3,0.5-0.5,1-0.6,1.6H100.1z"/>
</g>
<linearGradient id="SVGID_2_" gradientUnits="userSpaceOnUse" x1="45.0317" y1="8.5996" x2="45.0317" y2="25.5">
	<stop  offset="0" style="stop-color:#864BFF"/>
	<stop  offset="1" style="stop-color:#5082FF"/>
</linearGradient>
<linearGradient id="SVGID_3_" gradientUnits="userSpaceOnUse" x1="45.0312" y1="8.0996" x2="45.0312" y2="26">
	<stop  offset="0" style="stop-color:#864BFF"/>
	<stop  offset="1" style="stop-color:#5082FF"/>
</linearGradient>
<path class="st1" d="M46.8,20.2c0-0.3-0.1-0.6-0.3-0.8c-0.2-0.2-0.5-0.4-0.8-0.6c-0.3-0.2-0.7-0.3-1.1-0.4c-0.4-0.1-0.9-0.3-1.3-0.4
	c-0.4-0.2-0.8-0.3-1.2-0.5c-0.4-0.2-0.7-0.5-1-0.8c-0.3-0.3-0.5-0.7-0.7-1.1c-0.2-0.4-0.3-1-0.3-1.6c0-0.9,0.2-1.7,0.5-2.4
	c0.3-0.7,0.8-1.2,1.4-1.7c0.6-0.4,1.2-0.8,2-1s1.6-0.3,2.4-0.3c0.5,0,1,0,1.4,0.1c0.5,0.1,1,0.1,1.4,0.2c0.5,0.1,0.9,0.2,1.3,0.4
	c0.4,0.1,0.8,0.3,1.1,0.5l-0.6,3.1c-0.8-0.3-1.6-0.6-2.4-0.8c-0.8-0.2-1.6-0.3-2.3-0.3c-0.8,0-1.4,0.2-1.8,0.5
	C44.2,12.6,44,13,44,13.5c0,0.3,0.1,0.6,0.2,0.8c0.1,0.2,0.3,0.4,0.6,0.5c0.2,0.2,0.5,0.3,0.9,0.4c0.3,0.1,0.7,0.2,1,0.4
	c0.5,0.2,0.9,0.3,1.4,0.5s0.9,0.5,1.3,0.8c0.4,0.3,0.7,0.7,0.9,1.2c0.2,0.5,0.4,1.1,0.4,1.8c0,0.9-0.2,1.7-0.5,2.4s-0.8,1.3-1.5,1.8
	c-0.6,0.5-1.4,0.8-2.3,1.1c-0.9,0.2-1.9,0.4-3,0.4c-0.6,0-1.2,0-1.7-0.1c-0.5-0.1-1-0.1-1.5-0.2c-0.4-0.1-0.8-0.2-1.1-0.3
	c-0.3-0.1-0.6-0.2-0.8-0.3l0.6-3.1c0.7,0.3,1.5,0.5,2.2,0.7c0.7,0.2,1.5,0.2,2.3,0.2c1.1,0,1.9-0.2,2.5-0.6
	C46.5,21.4,46.8,20.9,46.8,20.2z"/>
<linearGradient id="SVGID_4_" gradientUnits="userSpaceOnUse" x1="65.1265" y1="8.5996" x2="65.1265" y2="25.085">
	<stop  offset="0" style="stop-color:#864BFF"/>
	<stop  offset="1" style="stop-color:#5082FF"/>
</linearGradient>
<linearGradient id="SVGID_5_" gradientUnits="userSpaceOnUse" x1="65.0693" y1="8.0996" x2="65.0693" y2="25.585">
	<stop  offset="0" style="stop-color:#864BFF"/>
	<stop  offset="1" style="stop-color:#5082FF"/>
</linearGradient>
<path class="st2" d="M68.1,11.4c0.7-0.9,1.5-1.6,2.4-2.1s1.9-0.7,3-0.7c0.7,0,1.2,0.1,1.8,0.3s1,0.5,1.4,0.8
	c0.4,0.4,0.7,0.8,0.9,1.3c0.2,0.5,0.3,1.1,0.3,1.8c0,0.4,0,0.9-0.1,1.4s-0.2,1-0.3,1.5l-2,9.5h-3.9l2-9.4c0.1-0.5,0.2-1,0.2-1.3
	c0-0.3,0.1-0.6,0.1-0.8c0-0.2,0-0.4-0.1-0.6c-0.1-0.2-0.2-0.4-0.3-0.5s-0.3-0.3-0.5-0.4c-0.2-0.1-0.5-0.1-0.8-0.1
	c-0.7,0-1.3,0.2-1.9,0.6c-0.6,0.4-1.1,0.9-1.5,1.5c-0.2,0.3-0.4,0.7-0.6,1.1c-0.2,0.4-0.3,0.9-0.4,1.5l-1.7,8.4H62l2-9.4
	c0.1-0.5,0.2-1,0.2-1.3c0-0.3,0.1-0.6,0.1-0.8c0-0.2,0-0.4-0.1-0.6c-0.1-0.2-0.2-0.4-0.3-0.5s-0.3-0.3-0.5-0.4
	c-0.2-0.1-0.5-0.1-0.8-0.1c-0.6,0-1.2,0.2-1.7,0.5c-0.5,0.3-1,0.8-1.5,1.3c-0.3,0.4-0.5,0.8-0.7,1.3c-0.2,0.5-0.4,1-0.5,1.7
	l-1.8,8.5h-3.9L55.8,9h3.3v2h0.1c0.3-0.3,0.6-0.6,0.9-0.9c0.4-0.3,0.7-0.6,1.2-0.8c0.4-0.2,0.9-0.4,1.3-0.5c0.5-0.1,1-0.2,1.5-0.2
	c1,0,1.8,0.2,2.5,0.7C67.3,9.8,67.7,10.5,68.1,11.4L68.1,11.4z"/>
<linearGradient id="SVGID_6_" gradientUnits="userSpaceOnUse" x1="83.7271" y1="1.0459" x2="83.7271" y2="25.085">
	<stop  offset="0" style="stop-color:#864BFF"/>
	<stop  offset="1" style="stop-color:#5082FF"/>
</linearGradient>
<linearGradient id="SVGID_7_" gradientUnits="userSpaceOnUse" x1="83.7252" y1="0.5459" x2="83.7252" y2="25.585">
	<stop  offset="0" style="stop-color:#864BFF"/>
	<stop  offset="1" style="stop-color:#5082FF"/>
</linearGradient>
<path class="st3" d="M79.2,25.1L82.6,9h3.9l-3.4,16.1H79.2z M83.2,5.3L84.1,1h4.1l-0.9,4.3H83.2z"/>
<linearGradient id="SVGID_8_" gradientUnits="userSpaceOnUse" x1="93.7954" y1="4.499" x2="93.7954" y2="25.5">
	<stop  offset="0" style="stop-color:#864BFF"/>
	<stop  offset="1" style="stop-color:#5082FF"/>
</linearGradient>
<linearGradient id="SVGID_9_" gradientUnits="userSpaceOnUse" x1="93.7954" y1="3.999" x2="93.7954" y2="26">
	<stop  offset="0" style="stop-color:#864BFF"/>
	<stop  offset="1" style="stop-color:#5082FF"/>
</linearGradient>
<path class="st4" d="M99,12.2h-4.2L93.2,20c-0.1,0.2-0.1,0.5-0.1,0.6c0,0.2,0,0.3,0,0.5c0,0.4,0.1,0.7,0.3,0.9
	c0.2,0.2,0.6,0.2,1.2,0.2c0.4,0,0.9,0,1.4-0.1s1.1-0.2,1.6-0.3l-0.6,3.3c-0.5,0.1-1.1,0.3-1.7,0.3c-0.6,0.1-1.2,0.1-1.8,0.1
	c-0.8,0-1.4-0.1-2-0.2c-0.6-0.2-1-0.4-1.4-0.7c-0.4-0.3-0.6-0.7-0.8-1.1C89.1,23,89,22.6,89,22c0-0.2,0-0.4,0-0.7
	c0-0.3,0.1-0.6,0.1-0.9l1.7-8.2h-3L88.6,9h3l0.9-4.5h3.9L95.5,9h4.2L99,12.2z"/>
</svg>
