<svg xmlns="http://www.w3.org/2000/svg" width="28" height="32" viewBox="0 0 28 32">
    <path fill="#765CFF" fill-rule="evenodd" d="M26.276 18.246H1.116a1.07 1.07 0 0 0-.781.335 1.121 1.121 0 0 0-.335.825v2.275c0 .327.112.602.335.826.223.223.483.334.78.334h25.161c.298 0 .558-.111.78-.334.224-.224.335-.499.335-.826v-2.275c0-.327-.111-.602-.334-.825a1.07 1.07 0 0 0-.78-.335zm0-9.1H1.116a1.07 1.07 0 0 0-.781.334 1.07 1.07 0 0 0-.335.78v2.276c0 .327.112.602.335.825.223.223.483.335.78.335h25.161c.298 0 .558-.112.78-.335.224-.223.335-.498.335-.825V10.26a1.07 1.07 0 0 0-.334-.781 1.07 1.07 0 0 0-.78-.335zM14.856 27.39H1.116a1.07 1.07 0 0 0-.781.335 1.121 1.121 0 0 0-.335.825v2.276c0 .327.112.602.335.825.223.223.483.334.78.334h13.74c.298 0 .558-.111.781-.334.223-.223.335-.498.335-.825V28.55c0-.327-.112-.602-.335-.825a1.07 1.07 0 0 0-.78-.335zM26.276 0H1.116a1.07 1.07 0 0 0-.781.335 1.07 1.07 0 0 0-.335.78v2.32c0 .297.112.558.335.78.223.224.483.335.78.335h25.161c.298 0 .558-.111.78-.334a1.07 1.07 0 0 0 .335-.78v-2.32a1.07 1.07 0 0 0-.334-.781 1.07 1.07 0 0 0-.78-.335z"/>
</svg>
