<?xml version="1.0" encoding="UTF-8"?>
<svg width="26px" height="30px" viewBox="0 0 26 30" version="1.1" xmlns="http://www.w3.org/2000/svg" xmlns:xlink="http://www.w3.org/1999/xlink">
    <!-- Generator: Sketch 47.1 (45422) - http://www.bohemiancoding.com/sketch -->
    <title>Group 2</title>
    <desc>Created with Sketch.</desc>
    <defs></defs>
    <g id="Page-1" stroke="none" stroke-width="1" fill="none" fill-rule="evenodd">
        <g id="Afs-Desktop-IFiles-Empty" transform="translate(-248.000000, -329.000000)" fill="#9B9B9B">
            <g id="Group" transform="translate(224.000000, 296.000000)">
                <g id="Group-2" transform="translate(24.000000, 33.000000)">
                    <path d="M25.2761766,18.2461048 L0.115287752,18.2461048 C0.0876051756,18.2461048 0.080223958,18.2492682 0.041686771,18.2878056 C0.00812310367,18.3213687 0,18.3414057 0,18.406004 L0,20.6811882 C0,20.7457886 0.00812489192,20.7658301 0.041686771,20.7993923 C0.080222053,20.8379269 0.0876099227,20.8410932 0.115287752,20.8410932 L25.2761766,20.8410932 C25.3038569,20.8410932 25.3112441,20.8379272 25.3497726,20.7993986 C25.3833429,20.7658284 25.3914672,20.7457884 25.3914672,20.6811882 L25.3914672,18.406004 C25.3914672,18.341406 25.3833447,18.3213704 25.3497636,18.2877902 C25.3112422,18.2492679 25.3038616,18.2461048 25.2761766,18.2461048 Z" id="Page-1" fill-rule="nonzero"></path>
                    <path d="M25.2761766,9.14535671 L0.115287752,9.14535671 C0.0876051756,9.14535671 0.080223958,9.1485201 0.041686771,9.18705758 C0.00316377034,9.22557989 0,9.23296201 0,9.26064161 L0,11.5358315 C0,11.6004298 0.00812310367,11.6204668 0.041695822,11.6540389 C0.080223958,11.6925673 0.0876051756,11.6957307 0.115287752,11.6957307 L25.2761766,11.6957307 C25.3038616,11.6957307 25.3112422,11.6925676 25.3497817,11.6540272 C25.3833447,11.6204651 25.3914672,11.6004295 25.3914672,11.5358315 L25.3914672,9.26064161 C25.3914672,9.2329623 25.388304,9.22558164 25.3497636,9.18704219 C25.3112422,9.1485198 25.3038616,9.14535671 25.2761766,9.14535671 Z" id="Path"></path>
                    <path d="M13.85563,27.3914643 L0.115287752,27.3914643 C0.087605018,27.3914643 0.0802217829,27.3946286 0.0416931067,27.4331571 C0.00812358533,27.4667267 0,27.4867649 0,27.5513636 L0,29.8265506 C0,29.8911492 0.00812348907,29.9111871 0.0416931067,29.9447568 C0.0802222089,29.9832859 0.087604886,29.9864499 0.115287752,29.9864499 L13.85563,29.9864499 C13.8833153,29.9864499 13.8906974,29.9832862 13.9292288,29.944754 C13.9627977,29.9111854 13.9709206,29.8911489 13.9709206,29.8265506 L13.9709206,27.5513636 C13.9709206,27.4867651 13.9627976,27.4667284 13.9292206,27.4331517 C13.8906978,27.3946283 13.8833152,27.3914643 13.85563,27.3914643 Z" id="Path"></path>
                    <path d="M25.2761766,0 L0.115287752,0 C0.0876030679,0 0.0802173427,0.00316527837 0.041695822,0.0416861087 C0.00316366346,0.0802185632 0,0.0876004365 0,0.115284897 L0,2.43508342 C0,2.46276788 0.00316366346,2.47014975 0.041686771,2.50867316 C0.0802173427,2.54720304 0.0876030679,2.55036832 0.115287752,2.55036832 L25.2761766,2.55036832 C25.3038637,2.55036832 25.3112488,2.54720333 25.3497726,2.50867949 C25.3883041,2.470148 25.3914672,2.46276759 25.3914672,2.43508342 L25.3914672,0.115284897 C25.3914672,0.087600726 25.3883041,0.0802203122 25.3497726,0.041688824 C25.3112488,0.00316498291 25.3038637,0 25.2761766,0 Z" id="Path"></path>
                </g>
            </g>
        </g>
    </g>
</svg>